<svg xmlns="http://www.w3.org/2000/svg" version="1.1" xmlns:xlink="http://www.w3.org/1999/xlink" xmlns:svgjs="http://svgjs.com/svgjs" width="1440" height="560" preserveAspectRatio="none" viewBox="0 0 1440 560"><g mask="url(&quot;#SvgjsMask1003&quot;)" fill="none"><rect width="1440" height="560" x="0" y="0" fill="#0e2a47"></rect><path d="M483.14 62.2L548.09 99.7L548.09 174.7L483.14 212.2L418.18 174.7L418.18 99.7zM678 399.7L742.95 437.2L742.95 512.2L678 549.7L613.04 512.2L613.04 437.2zM807.9 174.7L872.86 212.2L872.86 287.2L807.9 324.7L742.95 287.2L742.95 212.2zM1067.72 174.7L1132.67 212.2L1132.67 287.2L1067.72 324.7L1002.77 287.2L1002.77 212.2zM1197.63 174.7L1262.58 212.2L1262.58 287.2L1197.63 324.7L1132.67 287.2L1132.67 212.2zM1522.4 512.2L1587.35 549.7L1587.35 624.7L1522.4 662.2L1457.44 624.7L1457.44 549.7z" stroke="rgba(48, 65, 88, 1)" stroke-width="2"></path><path d="M475.64 62.2 a7.5 7.5 0 1 0 15 0 a7.5 7.5 0 1 0 -15 0zM540.59 99.7 a7.5 7.5 0 1 0 15 0 a7.5 7.5 0 1 0 -15 0zM540.59 174.7 a7.5 7.5 0 1 0 15 0 a7.5 7.5 0 1 0 -15 0zM475.64 212.2 a7.5 7.5 0 1 0 15 0 a7.5 7.5 0 1 0 -15 0zM410.68 174.7 a7.5 7.5 0 1 0 15 0 a7.5 7.5 0 1 0 -15 0zM410.68 99.7 a7.5 7.5 0 1 0 15 0 a7.5 7.5 0 1 0 -15 0zM670.5 399.7 a7.5 7.5 0 1 0 15 0 a7.5 7.5 0 1 0 -15 0zM735.45 437.2 a7.5 7.5 0 1 0 15 0 a7.5 7.5 0 1 0 -15 0zM735.45 512.2 a7.5 7.5 0 1 0 15 0 a7.5 7.5 0 1 0 -15 0zM670.5 549.7 a7.5 7.5 0 1 0 15 0 a7.5 7.5 0 1 0 -15 0zM605.54 512.2 a7.5 7.5 0 1 0 15 0 a7.5 7.5 0 1 0 -15 0zM605.54 437.2 a7.5 7.5 0 1 0 15 0 a7.5 7.5 0 1 0 -15 0zM800.4 174.7 a7.5 7.5 0 1 0 15 0 a7.5 7.5 0 1 0 -15 0zM865.36 212.2 a7.5 7.5 0 1 0 15 0 a7.5 7.5 0 1 0 -15 0zM865.36 287.2 a7.5 7.5 0 1 0 15 0 a7.5 7.5 0 1 0 -15 0zM800.4 324.7 a7.5 7.5 0 1 0 15 0 a7.5 7.5 0 1 0 -15 0zM735.45 287.2 a7.5 7.5 0 1 0 15 0 a7.5 7.5 0 1 0 -15 0zM735.45 212.2 a7.5 7.5 0 1 0 15 0 a7.5 7.5 0 1 0 -15 0zM1060.22 174.7 a7.5 7.5 0 1 0 15 0 a7.5 7.5 0 1 0 -15 0zM1125.17 212.2 a7.5 7.5 0 1 0 15 0 a7.5 7.5 0 1 0 -15 0zM1125.17 287.2 a7.5 7.5 0 1 0 15 0 a7.5 7.5 0 1 0 -15 0zM1060.22 324.7 a7.5 7.5 0 1 0 15 0 a7.5 7.5 0 1 0 -15 0zM995.27 287.2 a7.5 7.5 0 1 0 15 0 a7.5 7.5 0 1 0 -15 0zM995.27 212.2 a7.5 7.5 0 1 0 15 0 a7.5 7.5 0 1 0 -15 0zM1190.13 174.7 a7.5 7.5 0 1 0 15 0 a7.5 7.5 0 1 0 -15 0zM1255.08 212.2 a7.5 7.5 0 1 0 15 0 a7.5 7.5 0 1 0 -15 0zM1255.08 287.2 a7.5 7.5 0 1 0 15 0 a7.5 7.5 0 1 0 -15 0zM1190.13 324.7 a7.5 7.5 0 1 0 15 0 a7.5 7.5 0 1 0 -15 0zM1514.9 512.2 a7.5 7.5 0 1 0 15 0 a7.5 7.5 0 1 0 -15 0zM1579.85 549.7 a7.5 7.5 0 1 0 15 0 a7.5 7.5 0 1 0 -15 0zM1579.85 624.7 a7.5 7.5 0 1 0 15 0 a7.5 7.5 0 1 0 -15 0zM1514.9 662.2 a7.5 7.5 0 1 0 15 0 a7.5 7.5 0 1 0 -15 0zM1449.94 624.7 a7.5 7.5 0 1 0 15 0 a7.5 7.5 0 1 0 -15 0zM1449.94 549.7 a7.5 7.5 0 1 0 15 0 a7.5 7.5 0 1 0 -15 0z" fill="rgba(48, 65, 88, 1)"></path><path d="M38.91 123.81L82.21 148.81L82.21 198.81L38.91 223.81L-4.39 198.81L-4.39 148.81zM125.52 423.81L168.82 448.81L168.82 498.81L125.52 523.81L82.21 498.81L82.21 448.81zM212.12 273.81L255.42 298.81L255.42 348.81L212.12 373.81L168.82 348.81L168.82 298.81zM298.73 123.81L342.03 148.81L342.03 198.81L298.73 223.81L255.42 198.81L255.42 148.81zM342.03 198.81L385.33 223.81L385.33 273.81L342.03 298.81L298.73 273.81L298.73 223.81zM298.73 273.81L342.03 298.81L342.03 348.81L298.73 373.81L255.42 348.81L255.42 298.81zM471.94 -26.19L515.24 -1.19L515.24 48.81L471.94 73.81L428.63 48.81L428.63 -1.19zM515.24 48.81L558.54 73.81L558.54 123.81L515.24 148.81L471.94 123.81L471.94 73.81zM471.94 273.81L515.24 298.81L515.24 348.81L471.94 373.81L428.63 348.81L428.63 298.81zM515.24 348.81L558.54 373.81L558.54 423.81L515.24 448.81L471.94 423.81L471.94 373.81zM688.45 198.81L731.75 223.81L731.75 273.81L688.45 298.81L645.14 273.81L645.14 223.81zM688.45 498.81L731.75 523.81L731.75 573.81L688.45 598.81L645.14 573.81L645.14 523.81zM731.75 -26.19L775.05 -1.19L775.05 48.81L731.75 73.81L688.45 48.81L688.45 -1.19zM861.66 498.81L904.96 523.81L904.96 573.81L861.66 598.81L818.36 573.81L818.36 523.81zM904.96 -26.19L948.26 -1.19L948.26 48.81L904.96 73.81L861.66 48.81L861.66 -1.19zM948.26 48.81L991.57 73.81L991.57 123.81L948.26 148.81L904.96 123.81L904.96 73.81zM1121.47 348.81L1164.78 373.81L1164.78 423.81L1121.47 448.81L1078.17 423.81L1078.17 373.81zM1294.68 48.81L1337.99 73.81L1337.99 123.81L1294.68 148.81L1251.38 123.81L1251.38 73.81zM1251.38 123.81L1294.68 148.81L1294.68 198.81L1251.38 223.81L1208.08 198.81L1208.08 148.81zM1251.38 423.81L1294.68 448.81L1294.68 498.81L1251.38 523.81L1208.08 498.81L1208.08 448.81zM1337.99 423.81L1381.29 448.81L1381.29 498.81L1337.99 523.81L1294.68 498.81L1294.68 448.81zM1381.29 498.81L1424.59 523.81L1424.59 573.81L1381.29 598.81L1337.99 573.81L1337.99 523.81z" stroke="rgba(100, 175, 197, 0.93)" stroke-width="2"></path></g><defs><mask id="SvgjsMask1003"><rect width="1440" height="560" fill="#ffffff"></rect></mask></defs></svg>