<svg xmlns="http://www.w3.org/2000/svg" version="1.1" xmlns:xlink="http://www.w3.org/1999/xlink" xmlns:svgjs="http://svgjs.com/svgjs" width="1440" height="560" preserveAspectRatio="none" viewBox="0 0 1440 560"><g mask="url(&quot;#SvgjsMask1000&quot;)" fill="none"><rect width="1440" height="560" x="0" y="0" fill="#0e2a47"></rect><path d="M94 27L93 -313" stroke-width="6" stroke="url(#SvgjsLinearGradient1001)" stroke-linecap="round" class="Down"></path><path d="M157 217L156 4" stroke-width="10" stroke="url(#SvgjsLinearGradient1001)" stroke-linecap="round" class="Down"></path><path d="M436 215L435 488" stroke-width="10" stroke="url(#SvgjsLinearGradient1002)" stroke-linecap="round" class="Up"></path><path d="M762 0L761 303" stroke-width="10" stroke="url(#SvgjsLinearGradient1002)" stroke-linecap="round" class="Up"></path><path d="M590 274L589 671" stroke-width="6" stroke="url(#SvgjsLinearGradient1001)" stroke-linecap="round" class="Down"></path><path d="M546 429L545 16" stroke-width="10" stroke="url(#SvgjsLinearGradient1001)" stroke-linecap="round" class="Down"></path><path d="M1244 41L1243 325" stroke-width="6" stroke="url(#SvgjsLinearGradient1002)" stroke-linecap="round" class="Up"></path><path d="M200 375L199 -21" stroke-width="6" stroke="url(#SvgjsLinearGradient1002)" stroke-linecap="round" class="Up"></path><path d="M851 365L850 29" stroke-width="10" stroke="url(#SvgjsLinearGradient1001)" stroke-linecap="round" class="Down"></path><path d="M519 385L518 644" stroke-width="6" stroke="url(#SvgjsLinearGradient1001)" stroke-linecap="round" class="Down"></path><path d="M1202 243L1201 629" stroke-width="10" stroke="url(#SvgjsLinearGradient1001)" stroke-linecap="round" class="Down"></path><path d="M627 32L626 -182" stroke-width="8" stroke="url(#SvgjsLinearGradient1001)" stroke-linecap="round" class="Down"></path><path d="M112 19L111 -324" stroke-width="10" stroke="url(#SvgjsLinearGradient1002)" stroke-linecap="round" class="Up"></path><path d="M1434 54L1433 470" stroke-width="10" stroke="url(#SvgjsLinearGradient1002)" stroke-linecap="round" class="Up"></path><path d="M1154 284L1153 94" stroke-width="10" stroke="url(#SvgjsLinearGradient1001)" stroke-linecap="round" class="Down"></path><path d="M126 69L125 345" stroke-width="8" stroke="url(#SvgjsLinearGradient1002)" stroke-linecap="round" class="Up"></path><path d="M971 46L970 -231" stroke-width="6" stroke="url(#SvgjsLinearGradient1002)" stroke-linecap="round" class="Up"></path><path d="M472 457L471 812" stroke-width="8" stroke="url(#SvgjsLinearGradient1001)" stroke-linecap="round" class="Down"></path><path d="M291 195L290 -168" stroke-width="8" stroke="url(#SvgjsLinearGradient1002)" stroke-linecap="round" class="Up"></path><path d="M7 424L6 585" stroke-width="6" stroke="url(#SvgjsLinearGradient1001)" stroke-linecap="round" class="Down"></path><path d="M990 408L989 732" stroke-width="6" stroke="url(#SvgjsLinearGradient1001)" stroke-linecap="round" class="Down"></path><path d="M832 90L831 417" stroke-width="8" stroke="url(#SvgjsLinearGradient1001)" stroke-linecap="round" class="Down"></path><path d="M1138 478L1137 158" stroke-width="10" stroke="url(#SvgjsLinearGradient1002)" stroke-linecap="round" class="Up"></path><path d="M24 329L23 494" stroke-width="8" stroke="url(#SvgjsLinearGradient1001)" stroke-linecap="round" class="Down"></path><path d="M984 218L983 29" stroke-width="10" stroke="url(#SvgjsLinearGradient1002)" stroke-linecap="round" class="Up"></path><path d="M898 392L897 10" stroke-width="8" stroke="url(#SvgjsLinearGradient1002)" stroke-linecap="round" class="Up"></path><path d="M1328 302L1327 5" stroke-width="10" stroke="url(#SvgjsLinearGradient1002)" stroke-linecap="round" class="Up"></path><path d="M1198 424L1197 85" stroke-width="8" stroke="url(#SvgjsLinearGradient1001)" stroke-linecap="round" class="Down"></path><path d="M213 284L212 528" stroke-width="10" stroke="url(#SvgjsLinearGradient1002)" stroke-linecap="round" class="Up"></path><path d="M902 54L901 -120" stroke-width="10" stroke="url(#SvgjsLinearGradient1001)" stroke-linecap="round" class="Down"></path><path d="M733 117L732 466" stroke-width="8" stroke="url(#SvgjsLinearGradient1001)" stroke-linecap="round" class="Down"></path><path d="M1310 191L1309 519" stroke-width="10" stroke="url(#SvgjsLinearGradient1002)" stroke-linecap="round" class="Up"></path><path d="M393 252L392 -118" stroke-width="6" stroke="url(#SvgjsLinearGradient1001)" stroke-linecap="round" class="Down"></path><path d="M852 107L851 -227" stroke-width="6" stroke="url(#SvgjsLinearGradient1001)" stroke-linecap="round" class="Down"></path><path d="M1069 248L1068 403" stroke-width="10" stroke="url(#SvgjsLinearGradient1001)" stroke-linecap="round" class="Down"></path><path d="M955 456L954 152" stroke-width="10" stroke="url(#SvgjsLinearGradient1001)" stroke-linecap="round" class="Down"></path></g><defs><mask id="SvgjsMask1000"><rect width="1440" height="560" fill="#ffffff"></rect></mask><linearGradient x1="0%" y1="0%" x2="0%" y2="100%" id="SvgjsLinearGradient1001"><stop stop-color="rgba(28, 83, 142, 0)" offset="0"></stop><stop stop-color="#1c538e" offset="1"></stop></linearGradient><linearGradient x1="0%" y1="100%" x2="0%" y2="0%" id="SvgjsLinearGradient1002"><stop stop-color="rgba(28, 83, 142, 0)" offset="0"></stop><stop stop-color="#1c538e" offset="1"></stop></linearGradient></defs></svg>